<?xml version="1.0" encoding="UTF-8"?><svg id="Calque_1" xmlns="http://www.w3.org/2000/svg" viewBox="0 0 166.25 165.46"><defs><style>.cls-1{fill:#a19d99;}.cls-2{fill:#de5017;}.cls-3{fill:#1f85c9;}.cls-4{fill:#142c49;}.cls-5{fill:#436278;}</style></defs><path id="Tracé_1" class="cls-1" d="M11.34,88.29c-6.26,0-11.34-4.08-11.34-9.11V43.51c0-5.03,5.08-9.11,11.34-9.11s11.34,4.08,11.34,9.11v35.67c0,5.03-5.08,9.11-11.34,9.11"/><path id="Tracé_2" class="cls-2" d="M44.91,109.69c-6.26,0-11.34-4.08-11.34-9.11V15.49c0-5.03,5.08-9.11,11.34-9.11s11.34,4.08,11.34,9.11V100.58c0,5.04-5.08,9.11-11.34,9.11"/><path id="Tracé_3" class="cls-4" d="M81.58,122.28c-6.26,0-11.34-4.08-11.34-9.11V9.11c0-5.04,5.08-9.11,11.34-9.11s11.33,4.08,11.33,9.11V113.17c0,5.03-5.08,9.11-11.34,9.11"/><path id="Tracé_4" class="cls-3" d="M118.25,165.46c-6.26,0-11.34-4.08-11.34-9.12V16.32c0-5.03,5.08-9.11,11.34-9.11s11.34,4.08,11.34,9.11V156.34c0,5.04-5.08,9.12-11.34,9.12"/><path id="Tracé_5" class="cls-5" d="M154.91,92.25c-6.26,0-11.34-4.08-11.34-9.11V37.5c0-5.03,5.08-9.11,11.34-9.11s11.34,4.08,11.34,9.11v45.63c0,5.04-5.08,9.11-11.34,9.11"/></svg>