<svg xmlns="http://www.w3.org/2000/svg" xmlns:xlink="http://www.w3.org/1999/xlink" width="27" height="27" viewBox="0 0 27 27">
  <defs>
    <clipPath id="clip-path">
      <rect id="Rectángulo_21" data-name="Rectángulo 21" width="27" height="27" transform="translate(-0.231)" fill="#152c49"/>
    </clipPath>
  </defs>
  <g id="Grupo_51" data-name="Grupo 51" transform="translate(0.231)">
    <g id="Grupo_50" data-name="Grupo 50" transform="translate(0)" clip-path="url(#clip-path)">
      <path id="Trazado_21" data-name="Trazado 21" d="M23.529,8.963h-1.12V7.843A7.852,7.852,0,0,0,14.566,0H12.325A7.852,7.852,0,0,0,4.482,7.843v1.12H3.361A3.365,3.365,0,0,0,0,12.325v3.361a3.365,3.365,0,0,0,3.361,3.361H5.042a1.683,1.683,0,0,0,1.681-1.681V10.644A1.682,1.682,0,0,0,5.6,9.061V7.843A6.73,6.73,0,0,1,12.325,1.12h2.241a6.73,6.73,0,0,1,6.723,6.723V9.061a1.682,1.682,0,0,0-1.12,1.583v6.723a1.682,1.682,0,0,0,1.12,1.583v2.072a2.8,2.8,0,0,1-2.495,2.784l-1.987.219V22.969a.56.56,0,0,0-.56-.56H11.764a.56.56,0,0,0-.56.56V26.33a.56.56,0,0,0,.56.56h4.482a.56.56,0,0,0,.56-.56V25.151l2.109-.232a3.917,3.917,0,0,0,3.493-3.9V19.047h1.12a3.365,3.365,0,0,0,3.361-3.361V12.325a3.365,3.365,0,0,0-3.361-3.361M5.6,17.367a.561.561,0,0,1-.56.56H3.361A2.243,2.243,0,0,1,1.12,15.686V12.325a2.243,2.243,0,0,1,2.241-2.241H5.042a.561.561,0,0,1,.56.56Zm10.084,8.4H12.325V23.529h3.361ZM25.77,15.686a2.243,2.243,0,0,1-2.241,2.241H21.848a.561.561,0,0,1-.56-.56V10.644a.561.561,0,0,1,.56-.56h1.681a2.243,2.243,0,0,1,2.241,2.241Z" transform="translate(-0.027)" fill="#152c49"/>
    </g>
  </g>
</svg>
