<svg id="Grupo_4" data-name="Grupo 4" xmlns="http://www.w3.org/2000/svg" xmlns:xlink="http://www.w3.org/1999/xlink" width="191.959" height="62.395" viewBox="0 0 191.959 62.395">
  <defs>
    <clipPath id="clip-path">
      <rect id="Rectángulo_2" data-name="Rectángulo 2" width="191.959" height="62.395" fill="none"/>
    </clipPath>
  </defs>
  <g id="Grupo_3" data-name="Grupo 3" clip-path="url(#clip-path)">
    <path id="Trazado_6" data-name="Trazado 6" d="M159.515,45.1c0-12.987,9.82-21.855,22.174-21.855,9.63,0,15.015,5.067,17.992,10.326l-7.729,3.8a11.572,11.572,0,0,0-10.264-6.144c-7.348,0-12.925,5.891-12.925,13.873s5.576,13.875,12.925,13.875a11.456,11.456,0,0,0,10.264-6.146l7.729,3.737c-3.04,5.259-8.363,10.391-17.992,10.391-12.354,0-22.174-8.87-22.174-21.858" transform="translate(-85.076 -12.398)" fill="#142c49"/>
    <path id="Trazado_7" data-name="Trazado 7" d="M255.823,53.473a18.527,18.527,0,0,0,13.431,5.7c4.942,0,7.349-2.345,7.349-4.752,0-3.167-3.674-4.245-8.552-5.386-6.906-1.583-15.775-3.484-15.775-12.924,0-7.032,6.082-12.733,16.028-12.733,6.714,0,12.29,2.027,16.472,5.891l-5.005,6.59a18.021,18.021,0,0,0-12.1-4.625c-4.055,0-6.209,1.773-6.209,4.308,0,2.85,3.548,3.738,8.426,4.877,6.969,1.584,15.838,3.674,15.838,13.051,0,7.729-5.512,13.558-16.915,13.558-8.11,0-13.939-2.725-17.93-6.717Z" transform="translate(-133.805 -12.47)" fill="#142c49"/>
    <path id="Trazado_8" data-name="Trazado 8" d="M338.581,66.992V24.735h19.766c9.187,0,14.191,6.21,14.191,13.622,0,7.349-5.067,13.494-14.191,13.494H347.576V66.992Zm18.562-34.527h-9.567V44.123h9.567c3.548,0,6.209-2.282,6.209-5.829,0-3.484-2.662-5.828-6.209-5.828" transform="translate(-180.579 -13.192)" fill="#142c49"/>
    <path id="Trazado_9" data-name="Trazado 9" d="M4.276,47.289C1.915,47.289,0,45.751,0,43.852V30.4c0-1.9,1.915-3.437,4.276-3.437S8.552,28.5,8.552,30.4v13.45c0,1.9-1.915,3.437-4.276,3.437" transform="translate(0 -14.382)" fill="#a19d99"/>
    <path id="Trazado_10" data-name="Trazado 10" d="M33.9,44.116c-2.361,0-4.276-1.539-4.276-3.437V8.593c0-1.9,1.915-3.437,4.276-3.437s4.276,1.54,4.276,3.437V40.679c0,1.9-1.915,3.437-4.276,3.437" transform="translate(-15.801 -2.75)" fill="#de5117"/>
    <path id="Trazado_11" data-name="Trazado 11" d="M63.531,46.112c-2.361,0-4.276-1.539-4.276-3.437V3.437C59.255,1.539,61.17,0,63.531,0s4.276,1.539,4.276,3.437V42.675c0,1.9-1.915,3.437-4.276,3.437" transform="translate(-31.603 0)" fill="#142c49"/>
    <path id="Trazado_12" data-name="Trazado 12" d="M93.159,65.5c-2.361,0-4.276-1.539-4.276-3.437V9.259c0-1.9,1.915-3.437,4.276-3.437s4.276,1.539,4.276,3.437v52.8c0,1.9-1.915,3.437-4.276,3.437" transform="translate(-47.405 -3.105)" fill="#1f85c9"/>
    <path id="Trazado_13" data-name="Trazado 13" d="M122.788,47.02c-2.361,0-4.276-1.539-4.276-3.437V26.375c0-1.9,1.915-3.437,4.276-3.437s4.276,1.539,4.276,3.437V43.583c0,1.9-1.915,3.437-4.276,3.437" transform="translate(-63.207 -12.234)" fill="#436278"/>
  </g>
</svg>
